# xmcd
#
# Track frame offsets:
#	150
#	21078
#	40383
#	57279
#	76807
#	97670
#	115584
#	129589
#	148358
#	163635
#	178184
#	197264
#	214859
#	228318
#	248572
#	256349
#
# Disc length: 3624 seconds
#
# Revision: 0
# Processed by: cddbd v1.5.1PL0 Copyright (c) Steve Scherf et al.
# Submitted via: dBpowerAMP V4.0
#
DISCID=d00e2610
DTITLE=Cajun Pioneers - Jolie Blonde
DYEAR=2001
DGENRE=Cajun
TTITLE0=Amédé Two-Step
TTITLE1=Bayou Pon Pon
TTITLE2=Evangeline Special
TTITLE3=Hop, Skip, And Jump
TTITLE4=Parlez-Nous A Boire
TTITLE5=Pauvre Hobo
TTITLE6=Old Carpenter's Waltz-Contredance De Mamou
TTITLE7=Jolie Blonde
TTITLE8=Arc De Triomphe Two-Step
TTITLE9=Bayou Teche
TTITLE10=Bosco Stomp
TTITLE11=La Porte D' Arriere
TTITLE12=Mamou Two-Step
TTITLE13=You Used To Call Me
TTITLE14=Fiddlesticks ( J' Été-z-au Bal )
TTITLE15=Zydeo Sont Pas Salé
EXTD=
EXTT0=
EXTT1=
EXTT2=
EXTT3=
EXTT4=
EXTT5=
EXTT6=
EXTT7=
EXTT8=
EXTT9=
EXTT10=
EXTT11=
EXTT12=
EXTT13=
EXTT14=
EXTT15=
PLAYORDER=
